<svg width="181" height="170" viewBox="0 0 181 170" fill="none" xmlns="http://www.w3.org/2000/svg">
<g clip-path="url(#clip0_11656_14033)">
<path opacity="0.7" d="M65.0364 162.173C51.6136 171.052 33.441 164.054 29.441 148.465L15.3966 93.729C10.6677 75.2988 28.7323 59.2238 46.4884 66.0617L107.663 89.6199C125.419 96.4578 128.035 120.497 112.166 130.995L65.0364 162.173Z" fill="#00C65E"/>
<path d="M164.068 39.7543C172.896 44.3361 174.576 56.2533 167.359 63.097L142.016 87.1262C133.483 95.2171 119.374 90.29 117.733 78.646L112.078 38.5293C110.436 26.8853 122.634 18.2501 133.071 23.6669L164.068 39.7543Z" fill="#F89358"/>
<path d="M101.526 0.845413L106.429 0.695291L111.332 0.578008L121.138 0.348133C127.677 0.226159 134.216 0.108877 140.75 0.0338156L143.204 0.000976562C143.598 0.000976562 144.064 0.000976419 144.497 0.0338156C144.93 0.0666549 145.377 0.132333 145.81 0.216777C147.554 0.587508 149.172 1.39536 150.508 2.56244C151.172 3.14388 151.764 3.80051 152.272 4.51871C152.766 5.25005 153.169 6.03766 153.471 6.86437C153.623 7.27669 153.749 7.6982 153.847 8.12634C153.937 8.55325 154.008 8.98954 154.056 9.42583C154.122 10.3313 154.108 11.11 154.118 11.9169L154.17 31.2686L154.118 50.6156C154.118 51.4366 154.118 52.1872 154.065 53.102C154.042 53.5383 153.942 53.9699 153.88 54.4062L153.709 55.0442L153.623 55.3632L153.509 55.6728L153.276 56.2921L152.986 56.8832C152.789 57.277 152.567 57.6578 152.32 58.0232C151.82 58.7494 151.229 59.4099 150.56 59.9888C149.226 61.1631 147.603 61.9718 145.852 62.3345C145.417 62.4138 144.977 62.4702 144.535 62.5034C144.088 62.5034 143.646 62.5409 143.246 62.5315H140.797C134.26 62.4784 127.721 62.4017 121.181 62.3017L111.375 62.1093L106.472 62.0155L101.569 61.8325L106.472 61.6777L111.375 61.5604L121.181 61.3306C127.721 61.2023 134.258 61.0976 140.793 61.0162L143.246 60.9834C143.67 60.9834 144.041 60.9553 144.412 60.9318C144.783 60.8958 145.153 60.841 145.52 60.7676C146.983 60.4413 148.336 59.7481 149.448 58.755C150.003 58.2603 150.493 57.6993 150.908 57.0849C151.106 56.7743 151.287 56.4533 151.45 56.1232L151.683 55.6259L151.868 55.1099L151.963 54.8472L152.03 54.5798L152.163 54.0496C152.228 53.6879 152.274 53.323 152.301 52.9566C152.349 52.2622 152.301 51.399 152.301 50.6109L152.249 31.2639L152.301 11.9122C152.301 11.11 152.325 10.275 152.301 9.56657C152.267 9.20139 152.215 8.83813 152.144 8.47819C152.066 8.11705 151.965 7.76131 151.84 7.41326C151.364 6.00986 150.523 4.75445 149.4 3.7728C148.287 2.775 146.933 2.07559 145.467 1.74145C145.106 1.6617 144.735 1.60541 144.359 1.55849C143.984 1.51158 143.632 1.49751 143.208 1.50689H140.755C134.216 1.45998 127.677 1.37084 121.143 1.27701L111.332 1.08936L106.429 0.990845L101.526 0.845413Z" fill="#0FC645"/>
<path d="M143.05 61.7348L100.873 61.8239C99.6043 61.8264 98.3477 61.582 97.1751 61.1047C96.0025 60.6274 94.9369 59.9265 94.0393 59.0423C93.1416 58.1581 92.4296 57.1079 91.9441 55.9519C91.4585 54.7958 91.2089 53.5566 91.2095 52.3053V10.8481C91.2057 8.32518 92.2174 5.904 94.0222 4.11653C95.827 2.32906 98.2773 1.32153 100.835 1.31531L142.855 1.24025C144.124 1.23779 145.38 1.48217 146.553 1.95943C147.726 2.43668 148.792 3.13743 149.69 4.02157C150.588 4.90571 151.301 5.95587 151.787 7.11195C152.273 8.26804 152.523 9.50735 152.523 10.7589V52.3662C152.519 54.8457 151.521 57.223 149.746 58.9784C147.971 60.7339 145.563 61.7249 143.05 61.7348Z" fill="white"/>
<path d="M132.683 73.5939C131.872 73.412 131.148 72.9638 130.63 72.3228C130.112 71.6818 129.829 70.886 129.829 70.066V65.5389C129.829 64.5796 130.216 63.6596 130.903 62.9813C131.591 62.303 132.524 61.9219 133.496 61.9219L110.237 61.9782C111.209 61.9782 112.142 62.3592 112.829 63.0376C113.517 63.7159 113.903 64.6359 113.903 65.5952V70.127C113.932 71.3327 112.724 73.0778 111.112 73.5939H101.03V78.7215H142.703V73.5939H132.683Z" fill="#0FC645"/>
<path d="M138.743 31.6015H87.6922C85.5475 31.6015 82.8844 29.8329 83.8117 27.7734L91.5538 14.6611H152.891L145.149 27.7968C142.947 31.137 140.888 31.6015 138.743 31.6015Z" fill="#0FC645"/>
<path d="M138.741 32.2244H87.6899C86.8677 32.2211 86.0574 32.0296 85.323 31.6649C84.5885 31.3002 83.9499 30.7722 83.4575 30.1227C83.1955 29.7447 83.0368 29.3065 82.9968 28.8504C82.9569 28.3942 83.0369 27.9357 83.2292 27.519L83.2625 27.458L91.1853 14.0361H153.959L145.708 28.0866C143.444 31.5254 141.29 32.2244 138.741 32.2244ZM84.3991 28.0538C84.2993 28.2769 84.2599 28.5218 84.285 28.7644C84.31 29.007 84.3984 29.239 84.5417 29.4377C84.9201 29.9101 85.4011 30.2927 85.9492 30.5574C86.4973 30.822 87.0987 30.9621 87.7089 30.9671H138.741C140.538 30.9671 142.474 30.695 144.614 27.4298L151.785 15.284H91.9366L84.3991 28.0538Z" fill="#0FC645"/>
<path d="M125.029 10.1061C126.043 10.1061 126.865 9.29533 126.865 8.29522C126.865 7.29512 126.043 6.48438 125.029 6.48438C124.016 6.48438 123.194 7.29512 123.194 8.29522C123.194 9.29533 124.016 10.1061 125.029 10.1061Z" fill="#0FC645"/>
<path d="M132.676 10.1061C133.69 10.1061 134.512 9.29533 134.512 8.29522C134.512 7.29512 133.69 6.48438 132.676 6.48438C131.662 6.48438 130.84 7.29512 130.84 8.29522C130.84 9.29533 131.662 10.1061 132.676 10.1061Z" fill="#0FC645"/>
<path d="M140.321 10.1061C141.334 10.1061 142.156 9.29533 142.156 8.29522C142.156 7.29512 141.334 6.48438 140.321 6.48438C139.307 6.48438 138.485 7.29512 138.485 8.29522C138.485 9.29533 139.307 10.1061 140.321 10.1061Z" fill="#0FC645"/>
<path d="M105.392 57.84L104.817 57.4084L110.947 48.7061L112.274 49.7053L105.392 57.84Z" fill="#0FC645"/>
<path d="M119.13 47.2938L118.559 46.8669L123.857 39.2529L125.174 40.2428L119.13 47.2938Z" fill="#0FC645"/>
<path d="M103.444 49.7719L102.963 49.4107L112.622 36.2656L113.735 37.1054L103.444 49.7719Z" fill="#0FC645"/>
<path d="M98.7041 41.229L98.395 40.9992L103.95 33.3945L104.663 33.9293L98.7041 41.229Z" fill="#0FC645"/>
<path d="M116.295 57.5902L116.124 57.4636L119.186 53.2695L119.581 53.5651L116.295 57.5902Z" fill="#0FC645"/>
<path d="M95.9628 50.2926L95.8677 50.2223L97.6035 47.8438L97.827 48.0126L95.9628 50.2926Z" fill="#0FC645"/>
<path d="M95.041 32.2279H93.4146L103.42 14.0303H105.047L95.041 32.2279Z" fill="white"/>
<path d="M104.55 32.2306H102.928L112.929 14.0283L114.541 14.0424L104.55 32.2306Z" fill="white"/>
<path d="M114.035 32.3158L112.451 32.2408L122.447 14.0479H124.069L114.035 32.3158Z" fill="white"/>
<path d="M123.574 32.2636L121.957 32.2495L131.967 14.0425H133.589L123.574 32.2636Z" fill="white"/>
<path d="M133.12 32.2119H131.499L141.49 14.0283H143.112L133.12 32.2119Z" fill="white"/>
<path d="M137.505 32.0234H129.497V61.9822H137.505V32.0234Z" fill="white"/>
<path d="M137.745 62.2224H129.256V31.8086H137.745V62.2224ZM129.737 61.7533H137.26V32.2777H129.737V61.7533Z" fill="#0FC645"/>
<path fill-rule="evenodd" clip-rule="evenodd" d="M145.915 66.9446C144.133 65.1981 141.965 63.2972 140.792 62.5312C141.734 62.5625 145.326 62.415 145.326 62.415C146.191 63.1132 147.116 63.9204 148.015 64.8022C149.925 66.6738 151.858 69.0129 152.769 71.4638C152.795 71.5341 152.822 71.6062 152.849 71.68C153.871 74.4184 155.772 79.5163 152.766 85.6394C149.729 91.8253 141.871 98.6906 124.241 105.478C119.246 107.401 113.128 110.638 108.289 114.691C103.396 118.789 99.0466 124.116 99.0467 128.883L98.3022 122.624C98.7927 120.266 101.268 116.658 106.362 112.391C111.51 108.079 117.935 104.691 123.163 102.678C140.578 95.9736 147.544 89.4672 150.073 84.3172C152.506 79.3612 151.005 75.3254 150.011 72.6554C149.993 72.606 149.974 72.557 149.956 72.5086C149.277 70.6808 147.722 68.7153 145.915 66.9446Z" fill="#FFB762"/>
<path d="M93.7822 139.111H40.9741L47.8944 84.3604H86.8619L93.7822 139.111Z" fill="white"/>
<path d="M100.364 139.111H47.5649L54.4852 84.3604H93.4441L100.364 139.111Z" fill="white"/>
<path d="M77.0937 87.1746H57.1699V73.4955C57.2462 70.9392 58.3292 68.5128 60.1891 66.7312C62.049 64.9496 64.5394 63.9531 67.1318 63.9531C69.7243 63.9531 72.2147 64.9496 74.0746 66.7312C75.9345 68.5128 77.0175 70.9392 77.0937 73.4955V87.1746ZM62.1142 82.2971H72.1495V73.4955C72.1775 72.8282 72.0685 72.1622 71.829 71.5375C71.5895 70.9128 71.2244 70.3424 70.7557 69.8604C70.287 69.3785 69.7244 68.995 69.1016 68.733C68.4789 68.4711 67.8088 68.336 67.1318 68.336C66.4548 68.336 65.7848 68.4711 65.162 68.733C64.5393 68.995 63.9766 69.3785 63.5079 69.8604C63.0393 70.3424 62.6742 70.9128 62.4347 71.5375C62.1952 72.1622 62.0861 72.8282 62.1142 73.4955V82.2971Z" fill="white"/>
<path d="M78.2567 88.029H58.3329V74.3499C58.2937 73.035 58.5223 71.7257 59.0053 70.4996C59.4883 69.2734 60.2158 68.1554 61.1447 67.2117C62.0737 66.2679 63.1851 65.5176 64.4133 65.0053C65.6415 64.493 66.9614 64.229 68.2948 64.229C69.6283 64.229 70.9482 64.493 72.1764 65.0053C73.4045 65.5176 74.516 66.2679 75.4449 67.2117C76.3739 68.1554 77.1014 69.2734 77.5843 70.4996C78.0673 71.7257 78.296 73.035 78.2567 74.3499V88.029ZM63.2772 83.1515H73.3125V74.3499C73.3405 73.6826 73.2315 73.0166 72.992 72.3919C72.7525 71.7672 72.3874 71.1968 71.9187 70.7148C71.45 70.2329 70.8874 69.8494 70.2646 69.5874C69.6419 69.3255 68.9718 69.1904 68.2948 69.1904C67.6178 69.1904 66.9478 69.3255 66.325 69.5874C65.7023 69.8494 65.1396 70.2329 64.6709 70.7148C64.2023 71.1968 63.8372 71.7672 63.5977 72.3919C63.3582 73.0166 63.2491 73.6826 63.2772 74.3499V83.1515Z" fill="#FFB762"/>
<path d="M98.6549 139.111H93.1843L86.8076 84.3604H92.2783L98.6549 139.111Z" fill="#FFB762"/>
</g>
<defs>
<clipPath id="clip0_11656_14033">
<rect width="181" height="170" fill="white" transform="translate(0 0.000976562)"/>
</clipPath>
</defs>
</svg>
