<svg width="25" height="25" viewBox="0 0 25 25" fill="none" xmlns="http://www.w3.org/2000/svg">
<path d="M22.2803 8.84301C22.2803 4.51901 17.8873 1 12.5053 1C7.12326 1 2.71875 4.51901 2.71875 8.84301C2.77176 10.7815 3.03003 12.709 3.48925 14.593L3.85725 16.5595C3.90085 16.7989 3.99493 17.0263 4.13325 17.2265C4.39825 17.6311 4.811 17.9159 5.28325 18.02C5.52257 18.066 5.76844 18.066 6.00776 18.02L6.52526 17.9395C6.76611 17.8888 6.99591 17.7954 7.20376 17.6635C7.40563 17.527 7.57775 17.3509 7.70976 17.146C7.8857 16.9364 8.01857 16.6941 8.10076 16.433C8.1524 16.1943 8.1524 15.9473 8.10076 15.7085L7.50276 12.9255C7.44804 12.6841 7.35068 12.4543 7.21526 12.247C7.07891 12.0418 6.90297 11.8659 6.69776 11.7295C6.49754 11.5912 6.27016 11.4971 6.03076 11.4535C5.78758 11.4075 5.53793 11.4075 5.29475 11.4535L4.80025 11.5455C4.66074 11.5741 4.52548 11.6205 4.39775 11.6835C4.22804 10.7501 4.14336 9.80323 4.14475 8.85451C4.14475 5.32401 7.88226 2.4605 12.4823 2.4605C17.0823 2.4605 20.8428 5.32401 20.8428 8.84301C20.849 9.79523 20.7682 10.746 20.6013 11.6835C20.467 11.6169 20.3236 11.5704 20.1758 11.5455L19.6813 11.442C19.4395 11.3918 19.1902 11.3902 18.9478 11.4373C18.7054 11.4843 18.4747 11.5791 18.2693 11.716C18.0638 11.853 17.8877 12.0295 17.751 12.2351C17.6144 12.4408 17.5199 12.6715 17.4733 12.914L16.9213 15.6855C16.8243 16.1713 16.9235 16.6757 17.1973 17.0885C17.4636 17.494 17.8751 17.7821 18.3473 17.8935L18.8418 17.9855C19.0822 18.0355 19.3302 18.0368 19.5712 17.9894C19.8121 17.942 20.0412 17.8468 20.2448 17.7095C20.6468 17.4419 20.9308 17.0303 21.0383 16.5595L21.4293 14.6045C21.9572 12.7281 22.2431 10.7919 22.2803 8.84301Z" fill="#00C65E" stroke="#00C65E" stroke-width="0.7" stroke-miterlimit="10"/>
<path d="M16.0464 7.27906H8.96235C8.85765 7.27875 8.75402 7.30012 8.65797 7.34181C8.56193 7.38349 8.47555 7.4446 8.40426 7.52129C8.33297 7.59798 8.27833 7.68858 8.24375 7.78741C8.20917 7.88624 8.19542 7.99116 8.20335 8.09556V23.2411C8.20335 23.4424 8.28332 23.6354 8.42566 23.7778C8.568 23.9201 8.76105 24.0001 8.96235 24.0001H16.0464C16.2457 23.9971 16.4358 23.9158 16.5756 23.7738C16.7155 23.6317 16.7939 23.4404 16.7939 23.2411V8.09556C16.8017 7.99212 16.7883 7.88816 16.7544 7.79011C16.7206 7.69206 16.6669 7.602 16.5969 7.52548C16.5268 7.44897 16.4418 7.38762 16.3472 7.34524C16.2525 7.30285 16.1501 7.28033 16.0464 7.27906Z" fill="white" stroke="#00C65E" stroke-width="0.7" stroke-miterlimit="10"/>
<path d="M19.8427 12.7931L19.4133 12.7121C18.9202 12.6191 18.4451 12.9434 18.3521 13.4365L17.96 15.5158C17.867 16.0089 18.1913 16.484 18.6844 16.5769L19.1138 16.6579C19.6069 16.7509 20.082 16.4266 20.175 15.9335L20.5671 13.8542C20.6601 13.3611 20.3358 12.886 19.8427 12.7931Z" fill="white"/>
<path d="M5.84675 16.6644L6.27618 16.5834C6.76924 16.4904 7.09356 16.0153 7.00058 15.5223L6.60843 13.4429C6.51545 12.9499 6.04036 12.6255 5.5473 12.7185L5.11787 12.7995C4.62481 12.8925 4.30049 13.3676 4.39347 13.8606L4.78562 15.94C4.87861 16.4331 5.35369 16.7574 5.84675 16.6644Z" fill="white"/>
<path d="M10.2412 7.2793V8.5575C10.2412 8.87507 10.4986 9.1325 10.8162 9.1325H14.1817C14.4992 9.1325 14.7567 8.87507 14.7567 8.5575V7.2793H10.2412Z" fill="#00C65E"/>
</svg>
